<svg xmlns="http://www.w3.org/2000/svg" viewBox="0 0 480 240" width="480" height="240"><rect width="480" height="240" fill="#0b1020"/><style>text{font-family:ui-sans-serif,system-ui,sans-serif;fill:#e6edf7}.m{fill:#8ab4ff}.a{stroke:#8ab4ff;stroke-width:2;fill:none}.b{stroke:#3ddc97;stroke-width:2;fill:none}.g{stroke:#26314f;stroke-width:1}</style><text x="30" y="34" font-size="14">7/10 qismi</text><path d="M240,135 L240.0,60.0 A75,75 0 0 1 284.1,74.3 Z" fill="#3ddc97" stroke="#0b1020"/><path d="M240,135 L284.1,74.3 A75,75 0 0 1 311.3,111.8 Z" fill="#3ddc97" stroke="#0b1020"/><path d="M240,135 L311.3,111.8 A75,75 0 0 1 311.3,158.2 Z" fill="#3ddc97" stroke="#0b1020"/><path d="M240,135 L311.3,158.2 A75,75 0 0 1 284.1,195.7 Z" fill="#3ddc97" stroke="#0b1020"/><path d="M240,135 L284.1,195.7 A75,75 0 0 1 240.0,210.0 Z" fill="#3ddc97" stroke="#0b1020"/><path d="M240,135 L240.0,210.0 A75,75 0 0 1 195.9,195.7 Z" fill="#3ddc97" stroke="#0b1020"/><path d="M240,135 L195.9,195.7 A75,75 0 0 1 168.7,158.2 Z" fill="#3ddc97" stroke="#0b1020"/><path d="M240,135 L168.7,158.2 A75,75 0 0 1 168.7,111.8 Z" fill="#182444" stroke="#0b1020"/><path d="M240,135 L168.7,111.8 A75,75 0 0 1 195.9,74.3 Z" fill="#182444" stroke="#0b1020"/><path d="M240,135 L195.9,74.3 A75,75 0 0 1 240.0,60.0 Z" fill="#182444" stroke="#0b1020"/></svg>