<svg xmlns="http://www.w3.org/2000/svg" viewBox="0 0 480 240" width="480" height="240"><rect width="480" height="240" fill="#0b1020"/><style>text{font-family:ui-sans-serif,system-ui,sans-serif;fill:#e6edf7}.m{fill:#8ab4ff}.a{stroke:#8ab4ff;stroke-width:2;fill:none}.b{stroke:#3ddc97;stroke-width:2;fill:none}.g{stroke:#26314f;stroke-width:1}</style><line x1="30" y1="140" x2="450" y2="140" class="a"/><line x1="30.0" y1="132" x2="30.0" y2="148" class="a"/><text x="30.0" y="170" font-size="12" text-anchor="middle">0</text><line x1="72.0" y1="132" x2="72.0" y2="148" class="a"/><text x="72.0" y="170" font-size="12" text-anchor="middle">1</text><line x1="114.0" y1="132" x2="114.0" y2="148" class="a"/><text x="114.0" y="170" font-size="12" text-anchor="middle">2</text><line x1="156.0" y1="132" x2="156.0" y2="148" class="a"/><text x="156.0" y="170" font-size="12" text-anchor="middle">3</text><line x1="198.0" y1="132" x2="198.0" y2="148" class="a"/><text x="198.0" y="170" font-size="12" text-anchor="middle">4</text><line x1="240.0" y1="132" x2="240.0" y2="148" class="a"/><text x="240.0" y="170" font-size="12" text-anchor="middle">5</text><line x1="282.0" y1="132" x2="282.0" y2="148" class="a"/><text x="282.0" y="170" font-size="12" text-anchor="middle">6</text><line x1="324.0" y1="132" x2="324.0" y2="148" class="a"/><text x="324.0" y="170" font-size="12" text-anchor="middle">7</text><line x1="366.0" y1="132" x2="366.0" y2="148" class="a"/><text x="366.0" y="170" font-size="12" text-anchor="middle">8</text><line x1="408.0" y1="132" x2="408.0" y2="148" class="a"/><text x="408.0" y="170" font-size="12" text-anchor="middle">9</text><line x1="450.0" y1="132" x2="450.0" y2="148" class="a"/><text x="450.0" y="170" font-size="12" text-anchor="middle">10</text><circle cx="198.0" cy="140" r="7" fill="#3ddc97"/><circle cx="324.0" cy="140" r="7" fill="#3ddc97"/><text x="30" y="40" font-size="16">Sonlar nuri</text></svg>